<svg width="1739" height="443" viewBox="0 0 1739 443" fill="none" xmlns="http://www.w3.org/2000/svg">
<g clip-path="url(#clip0_3253_16187)">
<path fill-rule="evenodd" clip-rule="evenodd" d="M1671.5 44.7253V13.0446H1684.5C1684.59 13.0446 1684.68 13.043 1684.77 13.0397V2.00492C1684.68 2.00164 1684.59 2 1684.5 2H1647.58V13.0446H1660.53V44.7253C1660.53 44.8179 1660.53 44.9095 1660.53 45H1671.5C1671.5 44.9095 1671.5 44.8179 1671.5 44.7253Z" fill="white"/>
<path fill-rule="evenodd" clip-rule="evenodd" d="M1725.7 16.8231V44.7253C1725.7 44.8179 1725.7 44.9095 1725.71 45H1736.67C1736.67 44.9095 1736.68 44.8179 1736.68 44.7253V16.8231C1736.68 12.754 1735.21 9.26621 1732.29 6.35972C1729.36 3.45324 1725.87 2 1721.83 2C1718.4 2 1715.34 3.10446 1712.65 5.31339C1709.95 3.10446 1706.89 2 1703.46 2C1699.38 2 1695.89 3.45324 1693.01 6.35972C1690.16 9.22745 1688.73 12.7152 1688.73 16.8231V44.7253C1688.73 44.8179 1688.73 44.9095 1688.74 45H1699.7C1699.7 44.9095 1699.71 44.8179 1699.71 44.7253V16.8231C1699.71 15.7767 1700.07 14.8854 1700.8 14.1491C1701.54 13.4128 1702.42 13.0446 1703.46 13.0446C1704.5 13.0446 1705.39 13.4322 1706.12 14.2072C1706.85 14.9435 1707.22 15.8155 1707.22 16.8231V16.9393V44.7253C1707.22 44.8179 1707.22 44.9095 1707.22 45H1718.19C1718.19 44.9095 1718.19 44.8179 1718.19 44.7253V16.6487C1718.19 15.7186 1718.56 14.8854 1719.29 14.1491C1720.02 13.4128 1720.87 13.0446 1721.83 13.0446C1722.83 13.0446 1723.72 13.4322 1724.49 14.2072C1725.3 14.9435 1725.7 15.8155 1725.7 16.8231Z" fill="white"/>
<path d="M1546.64 201.071C1542.85 201.124 1539.08 200.424 1535.58 199.012C1532.07 197.6 1528.89 195.507 1526.21 192.856C1523.53 190.226 1521.4 187.088 1519.96 183.629C1518.53 180.171 1517.82 176.464 1517.87 172.728V110.277C1517.81 106.57 1518.51 102.889 1519.95 99.4616C1521.38 96.0342 1523.52 92.9338 1526.21 90.3513C1528.86 87.6462 1532.03 85.5026 1535.54 84.0535C1539.05 82.6044 1542.83 81.8806 1546.64 81.9257H1613.55V42.8945H1640.85V201.071H1546.64ZM1546.01 109.66C1545.36 111.717 1545.15 113.884 1545.39 116.026V166.971C1545.18 169.185 1545.39 171.418 1546.01 173.555C1548.18 174.163 1550.44 174.37 1552.68 174.164H1606.26C1608.43 174.365 1610.63 174.158 1612.72 173.555C1613.55 171.463 1613.84 169.2 1613.56 166.971V116.026C1613.56 112.193 1613.28 110.066 1612.72 109.66C1610.67 108.851 1608.45 108.567 1606.26 108.833H1552.68C1550.42 108.561 1548.13 108.845 1546.01 109.66ZM1440.8 201.071V81.9257H1468.11V201.071H1440.8ZM1295 201.071V110.277C1294.94 106.57 1295.64 102.89 1297.07 99.4631C1298.51 96.0365 1300.64 92.9353 1303.34 90.3513C1305.98 87.647 1309.16 85.5049 1312.66 84.0558C1316.18 82.6067 1319.96 81.8814 1323.76 81.9257H1390.88V108.833H1329.57C1327.31 108.561 1325.02 108.845 1322.9 109.66C1322.25 111.717 1322.05 113.884 1322.27 116.026V201.071H1295ZM1119.46 201.071C1115.65 201.117 1111.88 200.393 1108.36 198.944C1104.85 197.494 1101.68 195.351 1099.03 192.646C1096.3 190.044 1094.12 186.916 1092.65 183.454C1091.18 179.992 1090.45 176.27 1090.49 172.518V81.7228C1090.45 77.9707 1091.19 74.2491 1092.65 70.7873C1094.12 67.3255 1096.3 64.197 1099.03 61.5947C1101.68 58.8895 1104.85 56.7462 1108.36 55.297C1111.88 53.8479 1115.65 53.1237 1119.46 53.1691H1211.39C1215.23 53.11 1219.05 53.827 1222.59 55.2761C1226.15 56.7253 1229.36 58.8757 1232.03 61.5947C1234.78 64.1967 1236.95 67.325 1238.42 70.7869C1239.89 74.2487 1240.63 77.9707 1240.57 81.7228V93.2225H1212.87V87.6831C1212.87 83.8498 1212.6 81.725 1212.04 81.3094C1209.99 80.5044 1207.77 80.2226 1205.58 80.4901H1125.29C1123.04 80.2173 1120.75 80.4984 1118.63 81.3094C1117.98 83.3696 1117.77 85.5387 1118 87.6831V166.565C1117.8 168.776 1118.01 171.007 1118.63 173.141C1120.79 173.754 1123.06 173.963 1125.29 173.758H1205.56C1207.73 173.959 1209.93 173.75 1212.02 173.141C1212.84 171.05 1213.12 168.791 1212.85 166.565V144.58H1178.88V117.259H1240.57V172.518C1240.63 176.27 1239.89 179.992 1238.42 183.454C1236.95 186.916 1234.78 190.044 1232.03 192.646C1229.36 195.365 1226.15 197.516 1222.59 198.965C1219.05 200.414 1215.23 201.131 1211.39 201.071H1119.46ZM982.75 201.071C978.967 201.124 975.199 200.424 971.69 199.012C968.182 197.6 965.001 195.507 962.324 192.856C959.639 190.225 957.511 187.087 956.078 183.629C954.651 180.17 953.934 176.463 953.988 172.728V45.3674H981.293V81.9332H1028.41V108.841H981.293V166.978C981.087 169.189 981.293 171.421 981.918 173.555C984.085 174.175 986.35 174.386 988.592 174.179H1028.41V201.079L982.75 201.071ZM801.284 201.071C797.493 201.126 793.733 200.425 790.224 199.013C786.708 197.603 783.528 195.508 780.85 192.856C778.166 190.225 776.038 187.087 774.604 183.629C773.177 180.17 772.46 176.463 772.514 172.728V168.218H799.812V169.451C799.667 170.849 799.888 172.261 800.437 173.555C801.757 174.11 803.19 174.324 804.609 174.179H863.194C864.544 174.317 865.909 174.101 867.145 173.555C867.877 172.315 868.174 170.873 867.984 169.451V159.793C867.984 157.606 867.701 156.305 867.145 155.899C865.962 155.19 864.574 154.898 863.194 155.073H801.284C797.478 155.119 793.702 154.394 790.186 152.945C786.67 151.496 783.497 149.352 780.85 146.647C778.181 144.048 776.061 140.944 774.627 137.52C773.193 134.097 772.476 130.425 772.514 126.722V110.292C772.453 106.585 773.155 102.905 774.588 99.4781C776.022 96.0515 778.158 92.9504 780.85 90.3663C783.497 87.6613 786.67 85.5177 790.186 84.0686C793.702 82.6195 797.478 81.8956 801.284 81.9407H866.527C870.34 81.8956 874.116 82.6195 877.632 84.0686C881.148 85.5177 884.321 87.6613 886.96 90.3663C889.713 92.9203 891.895 96.0117 893.367 99.442C894.839 102.872 895.563 106.568 895.502 110.292V114.801H867.991V113.569C867.991 111.374 867.709 110.074 867.152 109.668C865.97 108.958 864.582 108.667 863.201 108.841H804.617C803.175 108.658 801.711 108.948 800.445 109.668C799.865 110.882 799.651 112.236 799.819 113.569V123.219C799.674 124.62 799.896 126.034 800.445 127.331C801.764 127.877 803.198 128.086 804.617 127.939H866.527C870.34 127.895 874.116 128.62 877.632 130.069C881.148 131.518 884.321 133.661 886.96 136.365C889.69 138.936 891.857 142.03 893.329 145.457C894.793 148.883 895.54 152.571 895.502 156.29V172.728C895.548 176.48 894.816 180.201 893.352 183.663C891.879 187.125 889.706 190.253 886.96 192.856C884.29 195.508 881.102 197.603 877.594 199.013C874.085 200.425 870.325 201.126 866.527 201.071H801.284ZM631.292 201.071C627.502 201.124 623.74 200.424 620.231 199.012C616.722 197.6 613.537 195.507 610.866 192.856C608.175 190.226 606.049 187.088 604.616 183.629C603.182 180.171 602.47 176.464 602.522 172.728V81.9257H629.835V166.971C629.627 169.182 629.836 171.412 630.453 173.547C632.618 174.167 634.882 174.379 637.127 174.171H690.7C692.875 174.403 695.074 174.19 697.16 173.547C697.987 171.457 698.275 169.198 697.999 166.971V81.9257H725.305V172.728C725.35 176.481 724.615 180.203 723.145 183.665C721.674 187.127 719.5 190.255 716.755 192.856C714.134 195.515 710.987 197.617 707.509 199.03C704.032 200.443 700.297 201.138 696.535 201.071H631.292ZM466.926 201.071V110.277C466.863 106.57 467.57 102.89 469.005 99.4631C470.44 96.0357 472.572 92.9346 475.27 90.3513C477.91 87.6462 481.084 85.5026 484.597 84.0535C488.11 82.6044 491.887 81.8806 495.696 81.9257H562.815V108.833H501.53C499.271 108.563 496.979 108.847 494.857 109.66C494.212 111.718 493.999 113.884 494.231 116.026V201.071H466.926ZM346.691 201.071V80.4751H285.406V53.154H435.502V80.4751H374.423V201.056L346.691 201.071ZM1440.8 70.0127V42.8945H1468.11V70.0127H1440.8Z" fill="white"/>
<path fill-rule="evenodd" clip-rule="evenodd" d="M205.935 103.869C204.196 103.877 202.467 104.13 200.802 104.621L178.15 83.8686C179.081 81.1034 179.323 78.1586 178.856 75.2814C178.388 72.405 177.224 69.6816 175.463 67.3416C173.702 65.0017 171.395 63.1142 168.737 61.8386C166.079 60.5631 163.148 59.937 160.193 60.0133C157.237 60.0897 154.344 60.8662 151.757 62.2773C149.171 63.6883 146.967 65.6925 145.333 68.1201C143.698 70.5477 142.682 73.3276 142.367 76.2247C142.053 79.1214 142.452 82.0505 143.53 84.763L122.891 105.763C118.935 104.327 114.6 104.267 110.605 105.595C106.611 106.922 103.198 109.556 100.933 113.059C98.6673 116.562 97.6865 120.724 98.1533 124.853C98.6201 128.981 100.506 132.828 103.499 135.754C106.491 138.68 110.409 140.509 114.602 140.937C118.795 141.365 123.01 140.367 126.548 138.107C130.085 135.848 132.732 132.464 134.048 128.518C135.364 124.571 135.27 120.3 133.782 116.413L154.551 95.2781C158.826 96.7791 163.515 96.6611 167.708 94.9474L189.156 114.572C188.123 116.816 187.568 119.246 187.524 121.709C187.481 124.173 187.95 126.62 188.904 128.898L168.494 149.266C165.08 147.77 161.284 147.335 157.613 148.017C153.942 148.7 150.569 150.47 147.944 153.089C145.318 155.709 143.566 159.055 142.919 162.68C142.272 166.307 142.762 170.041 144.323 173.386L123.562 194.07C121.295 193.143 118.863 192.674 116.409 192.689C113.955 192.704 111.53 193.205 109.276 194.16L88.4767 174.047C90.0288 170.664 90.4887 166.892 89.7939 163.243C89.099 159.593 87.2822 156.242 84.5906 153.644C81.899 151.045 78.4621 149.324 74.7449 148.716C71.0278 148.106 67.2106 148.637 63.8099 150.236L42.6292 129.822C43.7496 127.531 44.3655 125.031 44.4365 122.489C44.5076 119.946 44.032 117.417 43.0411 115.068L64.7786 94.2634C68.1212 95.6952 71.8202 96.1162 75.406 95.4728C78.9915 94.8286 82.3024 93.1495 84.9178 90.6482C87.5332 88.146 89.3355 84.9352 90.0951 81.4221C90.8548 77.9098 90.5383 74.2535 89.186 70.9184L110.649 50.3768C114.632 51.7092 118.958 51.6591 122.908 50.2349C126.858 48.8106 130.196 46.0978 132.366 42.547C134.536 38.9961 135.409 34.8205 134.839 30.7136C134.269 26.6065 132.291 22.8151 129.233 19.9685C126.176 17.122 122.222 15.3916 118.028 15.0645C113.836 14.7374 109.654 15.8334 106.18 18.1704C102.706 20.5075 100.148 23.9451 98.929 27.9126C97.7109 31.8801 97.9061 36.1389 99.4827 39.982L78.0732 60.4635C74.854 59.3663 71.3894 59.1709 68.0645 59.8989C64.7398 60.6269 61.6851 62.2498 59.2407 64.587C56.7963 66.9241 55.0579 69.8839 54.219 73.1368C53.3802 76.3901 53.4739 79.8084 54.4895 83.0118L31.7757 104.778C29.0514 103.89 26.1539 103.641 23.3146 104.052C20.4753 104.463 17.7729 105.523 15.4229 107.145C13.0728 108.769 11.1403 110.91 9.77957 113.4C8.41881 115.89 7.66753 118.659 7.58563 121.485C7.50372 124.312 8.09351 127.119 9.30783 129.681C10.5222 132.243 12.3275 134.49 14.5797 136.243C16.832 137.996 19.4687 139.205 22.2796 139.775C25.0904 140.345 27.9976 140.26 30.7689 139.526L53.9251 161.879C53.0624 164.99 53.0589 168.272 53.9147 171.385C54.7706 174.498 56.4547 177.329 58.7931 179.587C61.1315 181.843 64.0391 183.444 67.2155 184.222C70.3917 185 73.7214 184.928 76.8604 184.014L98.9793 205.374C98.1006 208.103 97.8901 210.996 98.3638 213.82C98.8374 216.643 99.9823 219.317 101.705 221.62C103.427 223.925 105.678 225.795 108.275 227.078C110.87 228.361 113.737 229.021 116.642 229.004C119.546 228.986 122.405 228.292 124.984 226.978C127.564 225.663 129.792 223.766 131.486 221.442C133.18 219.117 134.291 216.431 134.73 213.602C135.169 210.772 134.922 207.881 134.011 205.164L155.932 183.284C158.671 184.065 161.559 184.208 164.364 183.7C167.17 183.192 169.818 182.048 172.097 180.358C174.376 178.667 176.226 176.478 177.499 173.962C178.771 171.447 179.433 168.673 179.431 165.862C179.442 164.081 179.185 162.308 178.668 160.601L200.116 139.202C202.647 140.042 205.334 140.328 207.989 140.042C210.644 139.755 213.203 138.902 215.491 137.543C217.777 136.184 219.737 134.35 221.233 132.17C222.728 129.989 223.724 127.513 224.152 124.916C224.579 122.317 224.428 119.659 223.708 117.124C222.988 114.589 221.717 112.24 219.982 110.238C218.249 108.236 216.093 106.63 213.666 105.532C211.239 104.434 208.598 103.868 205.928 103.877L205.935 103.869Z" fill="#0076FC"/>
<path d="M1249.97 411V358.8H1259.69V411H1249.97ZM1249.97 341.7H1259.69V351.42H1249.97V341.7ZM1339.44 370.5V372.48H1329.72V370.5C1329.72 369.96 1329.51 369.51 1329.09 369.15C1328.73 368.73 1328.28 368.52 1327.74 368.52H1298.04C1297.5 368.52 1297.02 368.73 1296.6 369.15C1296.24 369.51 1296.06 369.96 1296.06 370.5V378.06C1296.06 378.6 1296.24 379.08 1296.6 379.5C1297.02 379.86 1297.5 380.04 1298.04 380.04H1327.74C1330.98 380.04 1333.74 381.18 1336.02 383.46C1338.3 385.74 1339.44 388.5 1339.44 391.74V399.3C1339.44 402.54 1338.3 405.3 1336.02 407.58C1333.74 409.86 1330.98 411 1327.74 411H1298.04C1294.8 411 1292.04 409.86 1289.76 407.58C1287.48 405.3 1286.34 402.54 1286.34 399.3V397.32H1296.06V399.3C1296.06 399.84 1296.24 400.32 1296.6 400.74C1297.02 401.1 1297.5 401.28 1298.04 401.28H1327.74C1328.28 401.28 1328.73 401.1 1329.09 400.74C1329.51 400.32 1329.72 399.84 1329.72 399.3V391.74C1329.72 391.2 1329.51 390.75 1329.09 390.39C1328.73 389.97 1328.28 389.76 1327.74 389.76H1298.04C1294.8 389.76 1292.04 388.62 1289.76 386.34C1287.48 384.06 1286.34 381.3 1286.34 378.06V370.5C1286.34 367.26 1287.48 364.5 1289.76 362.22C1292.04 359.94 1294.8 358.8 1298.04 358.8H1327.74C1330.98 358.8 1333.74 359.94 1336.02 362.22C1338.3 364.5 1339.44 367.26 1339.44 370.5ZM1419.13 370.5V372.48H1409.41V370.5C1409.41 369.96 1409.2 369.51 1408.78 369.15C1408.42 368.73 1407.97 368.52 1407.43 368.52H1377.73C1377.19 368.52 1376.71 368.73 1376.29 369.15C1375.93 369.51 1375.75 369.96 1375.75 370.5V378.06C1375.75 378.6 1375.93 379.08 1376.29 379.5C1376.71 379.86 1377.19 380.04 1377.73 380.04H1407.43C1410.67 380.04 1413.43 381.18 1415.71 383.46C1417.99 385.74 1419.13 388.5 1419.13 391.74V399.3C1419.13 402.54 1417.99 405.3 1415.71 407.58C1413.43 409.86 1410.67 411 1407.43 411H1377.73C1374.49 411 1371.73 409.86 1369.45 407.58C1367.17 405.3 1366.03 402.54 1366.03 399.3V397.32H1375.75V399.3C1375.75 399.84 1375.93 400.32 1376.29 400.74C1376.71 401.1 1377.19 401.28 1377.73 401.28H1407.43C1407.97 401.28 1408.42 401.1 1408.78 400.74C1409.2 400.32 1409.41 399.84 1409.41 399.3V391.74C1409.41 391.2 1409.2 390.75 1408.78 390.39C1408.42 389.97 1407.97 389.76 1407.43 389.76H1377.73C1374.49 389.76 1371.73 388.62 1369.45 386.34C1367.17 384.06 1366.03 381.3 1366.03 378.06V370.5C1366.03 367.26 1367.17 364.5 1369.45 362.22C1371.73 359.94 1374.49 358.8 1377.73 358.8H1407.43C1410.67 358.8 1413.43 359.94 1415.71 362.22C1417.99 364.5 1419.13 367.26 1419.13 370.5ZM1488.25 358.8H1497.97V399.3C1497.97 402.54 1496.83 405.3 1494.55 407.58C1492.27 409.86 1489.51 411 1486.27 411H1456.57C1453.33 411 1450.57 409.86 1448.29 407.58C1446.01 405.3 1444.87 402.54 1444.87 399.3V358.8H1454.59V399.3C1454.59 399.84 1454.77 400.32 1455.13 400.74C1455.55 401.1 1456.03 401.28 1456.57 401.28H1486.27C1486.81 401.28 1487.26 401.1 1487.62 400.74C1488.04 400.32 1488.25 399.84 1488.25 399.3V358.8ZM1564.38 358.8C1567.62 358.8 1570.38 359.94 1572.66 362.22C1574.94 364.5 1576.08 367.26 1576.08 370.5V389.76H1532.7V399.3C1532.7 399.84 1532.88 400.32 1533.24 400.74C1533.66 401.1 1534.14 401.28 1534.68 401.28H1576.08V411H1534.68C1531.44 411 1528.68 409.86 1526.4 407.58C1524.12 405.3 1522.98 402.54 1522.98 399.3V370.5C1522.98 367.26 1524.12 364.5 1526.4 362.22C1528.68 359.94 1531.44 358.8 1534.68 358.8H1564.38ZM1532.7 380.04H1566.36V370.5C1566.36 369.96 1566.15 369.51 1565.73 369.15C1565.37 368.73 1564.92 368.52 1564.38 368.52H1534.68C1534.14 368.52 1533.66 368.73 1533.24 369.15C1532.88 369.51 1532.7 369.96 1532.7 370.5V380.04ZM1613.33 358.8H1642.49V368.52H1613.33C1612.79 368.52 1612.31 368.73 1611.89 369.15C1611.53 369.51 1611.35 369.96 1611.35 370.5V411H1601.63V399.3V370.5C1601.63 367.26 1602.77 364.5 1605.05 362.22C1607.33 359.94 1610.09 358.8 1613.33 358.8Z" fill="white"/>
</g>
<defs>
<clipPath id="clip0_3253_16187">
<rect width="1739" height="443" fill="white"/>
</clipPath>
</defs>
</svg>
