<svg width="2414" height="1024" viewBox="0 0 2414 1024" fill="none" xmlns="http://www.w3.org/2000/svg">
<rect width="2414" height="1024" rx="32" fill="#030712"/>
<path d="M698.04 532.967C724.516 547.223 768.472 551.635 787.141 552.06C729.862 559.844 691.422 554.605 664.946 544.422C631.852 531.694 597.484 498.599 597.484 460.413C597.484 422.228 605.122 400.589 635.67 368.767C666.219 336.946 705.678 322.944 715.861 321.671C726.044 320.399 754.047 312.761 774.412 324.217C784.156 329.698 791.108 340.422 790.96 351.094C790.798 362.73 782.878 374.303 778.231 378.95C769.231 387.951 738.772 401.862 712.042 410.772C685.312 419.682 657.309 428.592 652.217 460.413C647.126 492.235 664.946 515.147 698.04 532.967Z" fill="#F9FAFB"/>
<circle cx="533.842" cy="460.561" r="38.1859" fill="#F9FAFB"/>
<path d="M776.962 491.033C750.486 476.777 706.53 472.365 687.861 471.94C745.14 464.156 783.58 469.395 810.056 479.578C843.15 492.306 877.518 525.401 877.518 563.587C877.518 601.772 869.88 623.411 839.332 655.233C808.783 687.054 769.324 701.056 759.141 702.329C748.958 703.601 720.955 711.239 700.59 699.783C690.846 694.302 683.894 683.578 684.042 672.906C684.204 661.27 692.124 649.697 696.771 645.05C705.771 636.049 736.23 622.138 762.96 613.228C789.69 604.318 817.693 595.408 822.785 563.587C827.876 531.765 810.056 508.853 776.962 491.033Z" fill="#F9FAFB"/>
<circle cx="941.16" cy="563.439" r="38.1859" transform="rotate(180 941.16 563.439)" fill="#F9FAFB"/>
<path d="M1184.66 496.398C1168.34 496.398 1152.67 494.037 1137.64 489.314C1122.83 484.377 1111.03 478.151 1102.22 470.638L1119.93 431.032C1124.44 434.467 1130.02 437.579 1136.68 440.37C1143.33 443.161 1150.52 445.415 1158.25 447.132C1165.98 448.849 1173.39 449.708 1180.47 449.708C1190.77 449.708 1197.86 448.098 1201.72 444.878C1205.59 441.658 1207.52 437.901 1207.52 433.608C1207.52 429.315 1205.91 425.88 1202.69 423.304C1199.68 420.728 1194.75 418.152 1187.88 415.576L1160.83 405.594C1144.08 399.369 1130.56 391.855 1120.26 383.054C1110.17 374.038 1105.12 361.695 1105.12 346.024C1105.12 327.777 1112.21 313.502 1126.37 303.198C1140.76 292.679 1161.15 287.42 1187.55 287.42C1204.73 287.42 1219.54 289.567 1231.99 293.86C1244.66 297.939 1254.96 303.413 1262.9 310.282L1246.48 347.956C1241.97 345.38 1236.39 343.019 1229.74 340.872C1223.08 338.725 1216.1 337.115 1208.81 336.042C1201.72 334.754 1194.96 334.11 1188.52 334.11C1179.72 334.11 1173.28 335.291 1169.2 337.652C1165.34 340.013 1163.4 343.126 1163.4 346.99C1163.4 350.21 1164.91 353.215 1167.91 356.006C1170.92 358.582 1175.96 361.158 1183.05 363.734L1206.55 372.428C1228.23 380.371 1243.47 388.85 1252.28 397.866C1261.29 406.667 1265.8 418.045 1265.8 431.998C1265.8 450.674 1258.82 466.13 1244.87 478.366C1231.13 490.387 1211.06 496.398 1184.66 496.398ZM1337.57 550.816L1369.13 470.316C1364.19 466.023 1358.61 460.012 1352.38 452.284C1346.16 444.556 1340.47 435.433 1335.32 424.914L1288.3 328.636H1343.04L1387.48 423.948L1424.83 328.636H1479.57L1390.7 550.816H1337.57ZM1620.77 515.718L1594.69 489.636V402.052C1594.69 393.251 1592.33 386.489 1587.61 381.766C1582.89 377.043 1576.02 374.682 1567 374.682C1563.14 374.682 1559.49 375.111 1556.05 375.97C1552.62 376.829 1549.61 378.009 1547.04 379.512V493.5H1495.52V354.718C1503.67 346.561 1514.73 340.013 1528.68 335.076C1542.85 329.924 1558.2 327.348 1574.73 327.348C1598.56 327.348 1616.37 332.822 1628.18 343.77C1640.2 354.503 1646.21 369.101 1646.21 387.562V465.486L1660.7 481.908L1620.77 515.718ZM1878.06 546.308L1796.59 494.466C1794.87 494.681 1793.15 494.788 1791.44 494.788C1789.72 494.788 1787.9 494.788 1785.96 494.788C1766.43 494.788 1748.93 490.924 1733.48 483.196C1718.02 475.468 1705.79 463.983 1696.77 448.742C1687.75 433.501 1683.25 414.503 1683.25 391.748C1683.25 370.067 1687.43 351.498 1695.8 336.042C1704.18 320.371 1716.09 308.35 1731.55 299.978C1747.22 291.606 1765.78 287.42 1787.25 287.42C1808.72 287.42 1826.96 291.606 1841.99 299.978C1857.23 308.35 1868.82 320.371 1876.77 336.042C1884.71 351.498 1888.68 370.067 1888.68 391.748C1888.68 410.639 1885.78 426.739 1879.99 440.048C1874.19 453.143 1866.36 463.769 1856.48 471.926L1908.32 496.72L1878.06 546.308ZM1787.25 448.42C1801.85 448.42 1812.9 443.697 1820.42 434.252C1828.15 424.592 1832.01 410.424 1832.01 391.748C1832.01 373.072 1828.15 358.797 1820.42 348.922C1812.9 338.833 1801.85 333.788 1787.25 333.788C1772.65 333.788 1761.06 338.833 1752.48 348.922C1744.1 358.797 1739.92 373.072 1739.92 391.748C1739.92 410.424 1744.1 424.592 1752.48 434.252C1761.06 443.697 1772.65 448.42 1787.25 448.42Z" fill="#F9FAFB"/>
<path d="M1140.42 675.688C1133.73 675.688 1127.3 674.72 1121.14 672.784C1115.07 670.76 1110.23 668.208 1106.62 665.128L1113.88 648.892C1115.73 650.3 1118.02 651.576 1120.75 652.72C1123.48 653.864 1126.42 654.788 1129.59 655.492C1132.76 656.196 1135.8 656.548 1138.7 656.548C1142.92 656.548 1145.83 655.888 1147.41 654.568C1149 653.248 1149.79 651.708 1149.79 649.948C1149.79 648.188 1149.13 646.78 1147.81 645.724C1146.58 644.668 1144.55 643.612 1141.74 642.556L1130.65 638.464C1123.78 635.912 1118.24 632.832 1114.02 629.224C1109.88 625.528 1107.81 620.468 1107.81 614.044C1107.81 606.564 1110.72 600.712 1116.52 596.488C1122.42 592.176 1130.78 590.02 1141.6 590.02C1148.64 590.02 1154.72 590.9 1159.82 592.66C1165.01 594.332 1169.24 596.576 1172.49 599.392L1165.76 614.836C1163.91 613.78 1161.62 612.812 1158.9 611.932C1156.17 611.052 1153.31 610.392 1150.32 609.952C1147.41 609.424 1144.64 609.16 1142 609.16C1138.39 609.16 1135.75 609.644 1134.08 610.612C1132.5 611.58 1131.7 612.856 1131.7 614.44C1131.7 615.76 1132.32 616.992 1133.55 618.136C1134.78 619.192 1136.85 620.248 1139.76 621.304L1149.39 624.868C1158.28 628.124 1164.53 631.6 1168.14 635.296C1171.83 638.904 1173.68 643.568 1173.68 649.288C1173.68 656.944 1170.82 663.28 1165.1 668.296C1159.47 673.224 1151.24 675.688 1140.42 675.688ZM1301.71 675.688C1294.4 675.688 1288.07 674.236 1282.7 671.332C1277.42 668.428 1273.33 664.292 1270.42 658.924C1267.52 653.556 1266.07 647.22 1266.07 639.916C1266.07 628.916 1269.23 620.468 1275.57 614.572C1281.99 608.588 1290.62 605.596 1301.44 605.596C1312.27 605.596 1320.89 608.588 1327.31 614.572C1333.74 620.556 1336.95 629.092 1336.95 640.18C1336.95 647.396 1335.54 653.688 1332.73 659.056C1329.91 664.336 1325.86 668.428 1320.58 671.332C1315.3 674.236 1309.01 675.688 1301.71 675.688ZM1301.71 658C1306.11 658 1309.45 656.372 1311.74 653.116C1314.11 649.86 1315.3 645.548 1315.3 640.18C1315.3 634.46 1314.03 630.192 1311.47 627.376C1309.01 624.472 1305.67 623.02 1301.44 623.02C1297.22 623.02 1293.83 624.472 1291.28 627.376C1288.81 630.192 1287.58 634.416 1287.58 640.048C1287.58 645.504 1288.86 649.86 1291.41 653.116C1293.96 656.372 1297.39 658 1301.71 658ZM1465.01 675.028C1458.06 675.028 1451.9 673.62 1446.53 670.804C1441.17 667.988 1436.94 663.896 1433.86 658.528C1430.87 653.16 1429.37 646.648 1429.37 638.992C1429.37 628.608 1432.28 620.38 1438.09 614.308C1443.89 608.236 1452.3 605.2 1463.3 605.2C1467.43 605.2 1471.48 605.684 1475.44 606.652C1479.49 607.532 1483.14 608.94 1486.4 610.876L1481.25 625.792C1477.73 623.68 1473.51 622.624 1468.58 622.624C1462.95 622.624 1458.63 624.032 1455.64 626.848C1452.74 629.664 1451.29 633.712 1451.29 638.992C1451.29 644.888 1453 649.464 1456.43 652.72C1459.87 655.976 1464.4 657.604 1470.03 657.604C1472.58 657.604 1475.09 657.252 1477.55 656.548C1480.11 655.844 1482.26 654.832 1484.02 653.512L1489.83 666.58C1487.19 668.692 1483.89 670.628 1479.93 672.388C1475.97 674.148 1471 675.028 1465.01 675.028ZM1583.56 674.5V610.876H1604.68V674.5H1583.56ZM1594.12 602.692C1590.6 602.692 1587.74 601.592 1585.54 599.392C1583.34 597.192 1582.24 594.464 1582.24 591.208C1582.24 587.952 1583.34 585.224 1585.54 583.024C1587.74 580.824 1590.6 579.724 1594.12 579.724C1597.73 579.724 1600.59 580.824 1602.7 583.024C1604.9 585.224 1606 587.952 1606 591.208C1606 594.464 1604.9 597.192 1602.7 599.392C1600.59 601.592 1597.73 602.692 1594.12 602.692ZM1748.13 681.364L1739.82 671.332C1735.68 673.884 1730.53 675.16 1724.37 675.16C1716.19 675.16 1709.81 673.048 1705.23 668.824C1700.66 664.512 1698.37 658.88 1698.37 651.928C1698.37 645.592 1700.31 640.708 1704.18 637.276C1708.05 633.756 1713.68 631.996 1721.07 631.996H1737.31V629.884C1737.31 627.332 1736.17 625.44 1733.88 624.208C1731.59 622.888 1728.33 622.228 1724.11 622.228C1720.85 622.228 1717.82 622.624 1715 623.416C1712.27 624.12 1709.63 625.22 1707.08 626.716L1701.93 611.404C1705.28 609.556 1709.02 608.236 1713.15 607.444C1717.29 606.564 1721.43 606.124 1725.56 606.124C1735.77 606.124 1743.78 608.324 1749.59 612.724C1755.39 617.036 1758.3 622.844 1758.3 630.148V660.244L1764.5 667.768L1748.13 681.364ZM1727.67 658.792C1731.02 658.792 1733.48 657.736 1735.07 655.624C1736.65 653.424 1737.44 651.224 1737.44 649.024V645.328H1727.67C1724.95 645.328 1722.88 645.9 1721.47 647.044C1720.15 648.188 1719.49 649.772 1719.49 651.796C1719.49 653.996 1720.24 655.712 1721.73 656.944C1723.32 658.176 1725.3 658.792 1727.67 658.792ZM1855.52 674.5V588.7H1876.64V674.5H1855.52Z" fill="#F9FAFB"/>
</svg>
