<svg width="24" height="24" viewBox="0 0 218 214" fill="none" xmlns="http://www.w3.org/2000/svg">
<path fill-rule="evenodd" clip-rule="evenodd" d="M198.935 88.869C197.196 88.877 195.467 89.13 193.802 89.621L171.15 68.8686C172.081 66.1034 172.323 63.1586 171.856 60.2814C171.388 57.405 170.224 54.6816 168.463 52.3416C166.702 50.0017 164.395 48.1142 161.737 46.8386C159.079 45.5631 156.148 44.937 153.193 45.0133C150.237 45.0897 147.344 45.8662 144.757 47.2773C142.171 48.6883 139.967 50.6925 138.333 53.1201C136.698 55.5477 135.682 58.3276 135.367 61.2247C135.053 64.1214 135.452 67.0505 136.53 69.763L115.891 90.763C111.935 89.327 107.6 89.267 103.605 90.595C99.611 91.922 96.198 94.556 93.933 98.059C91.6673 101.562 90.6865 105.724 91.1533 109.853C91.6201 113.981 93.506 117.828 96.499 120.754C99.491 123.68 103.409 125.509 107.602 125.937C111.795 126.365 116.01 125.367 119.548 123.107C123.085 120.848 125.732 117.464 127.048 113.518C128.364 109.571 128.27 105.3 126.782 101.413L147.551 80.2781C151.826 81.7791 156.515 81.6611 160.708 79.9474L182.156 99.572C181.123 101.816 180.568 104.246 180.524 106.709C180.481 109.173 180.95 111.62 181.904 113.898L161.494 134.266C158.08 132.77 154.284 132.335 150.613 133.017C146.942 133.7 143.569 135.47 140.944 138.089C138.318 140.709 136.566 144.055 135.919 147.68C135.272 151.307 135.762 155.041 137.323 158.386L116.562 179.07C114.295 178.143 111.863 177.674 109.409 177.689C106.955 177.704 104.53 178.205 102.276 179.16L81.4767 159.047C83.0288 155.664 83.4887 151.892 82.7939 148.243C82.099 144.593 80.2822 141.242 77.5906 138.644C74.899 136.045 71.4621 134.324 67.7449 133.716C64.0278 133.106 60.2106 133.637 56.8099 135.236L35.6292 114.822C36.7496 112.531 37.3655 110.031 37.4365 107.489C37.5076 104.946 37.032 102.417 36.0411 100.068L57.7786 79.2634C61.1212 80.6952 64.8202 81.1162 68.406 80.4728C71.9915 79.8286 75.3024 78.1495 77.9178 75.6482C80.5332 73.146 82.3355 69.9352 83.0951 66.4221C83.8548 62.9098 83.5383 59.2535 82.186 55.9184L103.649 35.3768C107.632 36.7092 111.958 36.6591 115.908 35.2349C119.858 33.8106 123.196 31.0978 125.366 27.547C127.536 23.9961 128.409 19.8205 127.839 15.7136C127.269 11.6065 125.291 7.8151 122.233 4.9685C119.176 2.122 115.222 0.391595 111.028 0.0644953C106.836 -0.262605 102.654 0.833396 99.18 3.1704C95.706 5.5075 93.148 8.9451 91.929 12.9126C90.7109 16.8801 90.9061 21.1389 92.4827 24.982L71.0732 45.4635C67.854 44.3663 64.3894 44.1709 61.0645 44.8989C57.7398 45.6269 54.6851 47.2498 52.2407 49.587C49.7963 51.9241 48.0579 54.8839 47.219 58.1368C46.3802 61.3901 46.4739 64.8084 47.4895 68.0118L24.7757 89.778C22.0514 88.89 19.1539 88.641 16.3146 89.052C13.4753 89.463 10.7729 90.523 8.4229 92.145C6.0728 93.769 4.1403 95.91 2.77957 98.4C1.41881 100.89 0.667527 103.659 0.585627 106.485C0.503717 109.312 1.09351 112.119 2.30783 114.681C3.5222 117.243 5.3275 119.49 7.5797 121.243C9.832 122.996 12.4687 124.205 15.2796 124.775C18.0904 125.345 20.9976 125.26 23.7689 124.526L46.9251 146.879C46.0624 149.99 46.0589 153.272 46.9147 156.385C47.7706 159.498 49.4547 162.329 51.7931 164.587C54.1315 166.843 57.0391 168.444 60.2155 169.222C63.3917 170 66.7214 169.928 69.8604 169.014L91.9793 190.374C91.1006 193.103 90.8901 195.996 91.3638 198.82C91.8374 201.643 92.9823 204.317 94.705 206.62C96.427 208.925 98.678 210.795 101.275 212.078C103.87 213.361 106.737 214.021 109.642 214.004C112.546 213.986 115.405 213.292 117.984 211.978C120.564 210.663 122.792 208.766 124.486 206.442C126.18 204.117 127.291 201.431 127.73 198.602C128.169 195.772 127.922 192.881 127.011 190.164L148.932 168.284C151.671 169.065 154.559 169.208 157.364 168.7C160.17 168.192 162.818 167.048 165.097 165.358C167.376 163.667 169.226 161.478 170.499 158.962C171.771 156.447 172.433 153.673 172.431 150.862C172.442 149.081 172.185 147.308 171.668 145.601L193.116 124.202C195.647 125.042 198.334 125.328 200.989 125.042C203.644 124.755 206.203 123.902 208.491 122.543C210.777 121.184 212.737 119.35 214.233 117.17C215.728 114.989 216.724 112.513 217.152 109.916C217.579 107.317 217.428 104.659 216.708 102.124C215.988 99.589 214.717 97.24 212.982 95.238C211.249 93.236 209.093 91.63 206.666 90.532C204.239 89.434 201.598 88.868 198.928 88.877L198.935 88.869Z" fill="#0076FC"/>
</svg>
